<svg xmlns="http://www.w3.org/2000/svg" width="2060.028" height="2476.504" viewBox="0 0 2060.028 2476.504">
  <g id="Group_1591" data-name="Group 1591" transform="translate(-472.643 -364.778)">
    <g id="Group_1592" data-name="Group 1592">
      <path id="Path_2704" data-name="Path 2704" d="M885,1063.8c-28.26,12.92-56.52,26.47-83.3,43-24.6,15.21-33,10.11-32.6-23.76.87-72.85.17-145.79-.7-218.64-1.13-96.71-19.48-188.83-56.86-283.77,126,46.38,226.67,202.8,238,360.89C955.92,1031.6,955.84,1031.18,885,1063.8Z" fill="#f39a2f"/>
      <path id="Path_2705" data-name="Path 2705" d="M2236.17,1979.68c-13,210.62-179.33,407.89-377.8,453.74-6.12,1.36-12.83.11-23.66.11,33.68-47.21,67.46-89.42,96-135.27,165.1-264.59,130.11-616.72-84.2-859.54-195.17-221.14-537.38-281.06-796.2-136.2-261.53,146.41-380.61,377.66-364.47,684.25,16.84,318.16,145.14,578.9,379.6,783.67,3.71,3.23,6.72,7.61,9.53,11.88,1.7,2.61,2.3,6,5.21,14.17C951,2750.33,840.44,2680,745.41,2583.38c-186.85-189.87-271.65-422.05-270.65-692.48,1.71-487.61.2-975.22.6-1462.72,0-21.26-10.62-51.69,10.13-61.48,18.34-8.55,39.19,13.44,56.63,26.36,111.47,82.12,137.43,204.05,139.13,334.52,2.41,188.94.61,378.08.61,572.23,39.19-13.86,64.35-41.27,91.62-64.2C980.27,1061.16,1213,978.94,1480.57,1017.5c171.41,24.8,325,95.56,453.28,214C2148,1429.34,2254.92,1678.83,2236.17,1979.68Z" fill="#1b3961"/>
      <path id="Path_2706" data-name="Path 2706" d="M2358.22,2471.25c-164.89,224.78-381.71,347.86-655.57,367.87-445.76,32.51-851.63-305.24-924.71-771.27-42.7-272.41,59.14-502.09,275.16-612.77,38.89-19.9,79.69-33.66,135.73-43.14-100.44,101.4-158.38,212.28-192.36,338.48-81.2,301.07,63.15,649.65,331.89,791.69,258,136.42,507,117,737.56-64.29,167.8-131.94,255.81-313.68,258.82-533.46,4.71-351.3-126.2-639.86-384.12-866.52-3.61-3.13-6.21-7.71-12.43-15.53,29.07-4.69,48.62,12.19,69.67,21,23.26,9.58,45.71,21.26,67.86,33.24C2539.05,1372.24,2681.59,2030.54,2358.22,2471.25Z" fill="#3a7db8"/>
    </g>
  </g>
</svg>
